<?xml version="1.0" encoding="utf-8"?>
<!-- Generator: Adobe Illustrator 26.3.1, SVG Export Plug-In . SVG Version: 6.00 Build 0)  -->
<svg version="1.1" id="图层_1" xmlns="http://www.w3.org/2000/svg" xmlns:xlink="http://www.w3.org/1999/xlink" x="0px" y="0px"
	 viewBox="0 0 595.28 841.89" style="enable-background:new 0 0 595.28 841.89;" xml:space="preserve">
<style type="text/css">
	.st0{fill:url(#SVGID_1_);}
	.st1{fill:#92E3F8;}
	.st2{fill:url(#SVGID_00000100373594331660963900000006981228180182850181_);}
	.st3{fill:url(#SVGID_00000062906334253959492270000009176725872756380066_);}
	.st4{fill:none;stroke:url(#SVGID_00000096040982712821946430000009749574064239337365_);stroke-miterlimit:10;}
	.st5{fill:none;stroke:url(#SVGID_00000182499458096058520990000006493097742263673268_);stroke-miterlimit:10;}
	.st6{fill:none;stroke:url(#SVGID_00000141435998424052951320000006207443726802438276_);stroke-miterlimit:10;}
	.st7{fill:none;stroke:url(#SVGID_00000067924152814109179640000012067754073970175163_);stroke-miterlimit:10;}
	.st8{fill:none;stroke:url(#SVGID_00000036961241406828250910000012964622349577063068_);stroke-miterlimit:10;}
	.st9{fill:none;stroke:url(#SVGID_00000147913517235179300510000000700600734051547033_);stroke-miterlimit:10;}
	.st10{fill:none;stroke:url(#SVGID_00000127008067066726271760000014015571612716498579_);stroke-miterlimit:10;}
	.st11{fill:none;stroke:#FFFFFF;stroke-linecap:round;stroke-linejoin:round;stroke-miterlimit:10;}
	.st12{fill:none;stroke:url(#SVGID_00000041270073900782433990000009967151043350398624_);stroke-miterlimit:10;}
	.st13{fill:none;stroke:url(#SVGID_00000126305764671673486810000009737863982623073180_);stroke-miterlimit:10;}
</style>
<g>
	<g>
		<linearGradient id="SVGID_1_" gradientUnits="userSpaceOnUse" x1="403.1432" y1="384.1266" x2="103.0994" y2="255.9486">
			<stop  offset="0" style="stop-color:#885DEF"/>
			<stop  offset="0.5046" style="stop-color:#497BEF"/>
			<stop  offset="1" style="stop-color:#30AAD5"/>
		</linearGradient>
		<path class="st0" d="M257.9,318.79c0.51,0,1-0.05,1.49-0.12l35.57,77.65l0.15,12.73c-4.43,1.28-7.69,5.36-7.69,10.2
			c0,5.86,4.77,10.62,10.62,10.62s10.62-4.77,10.62-10.62c0-4.79-3.19-8.85-7.56-10.17l-0.16-12.79l35.76-77.62
			c0.49,0.07,0.99,0.12,1.5,0.12c5.86,0,10.62-4.77,10.62-10.62s-4.77-10.62-10.62-10.62s-10.62,4.77-10.62,10.62
			c0,3.2,1.43,6.06,3.67,8.01l-33.3,72.28l-33.11-72.28c2.24-1.95,3.67-4.82,3.67-8.01c0-5.86-4.77-10.62-10.62-10.62
			c-5.86,0-10.62,4.77-10.62,10.62S252.04,318.79,257.9,318.79z M338.22,303.54c2.55,0,4.62,2.07,4.62,4.62s-2.07,4.62-4.62,4.62
			s-4.62-2.07-4.62-4.62S335.67,303.54,338.22,303.54z M298.05,414.62c2.55,0,4.62,2.07,4.62,4.62s-2.07,4.62-4.62,4.62
			s-4.62-2.07-4.62-4.62S295.5,414.62,298.05,414.62z M257.9,303.54c2.55,0,4.62,2.07,4.62,4.62s-2.07,4.62-4.62,4.62
			c-2.55,0-4.62-2.07-4.62-4.62S255.35,303.54,257.9,303.54z M442.61,299.53c-5.86,0-10.62,4.77-10.62,10.62
			c0,3.09,1.33,5.86,3.44,7.81l-29.59,64.54c-1.24,2.71-3.44,4.85-6.18,6.02l-38.55,16.42c-2.52,1.08-4.5,3.06-5.57,5.59l-3.25,7.71
			c-1.08,2.56-0.99,5.45,0.25,7.93l5.96,12c0.76,1.54,0.79,3.32,0.08,4.88l-21.37,46.59c-1.31,2.87-1.98,5.92-1.98,9.08v25.04
			c-0.45,0.13-0.89,0.3-1.32,0.49l-8.52-9.36c-0.76-0.84-1.18-1.92-1.18-3.05v-20.66c0-0.69,0.16-1.38,0.46-1.99l21.15-43.23
			c1.44-2.93,1.49-6.33,0.15-9.3l-7.6-16.88l8.09-17.43c1.06-2.28,2.9-4.09,5.2-5.11l38.09-16.87c4.44-1.97,8.01-5.48,10.05-9.89
			l19.69-42.63c0.69-1.5,0.04-3.29-1.47-3.98c-1.51-0.69-3.29-0.04-3.98,1.47l-19.69,42.63c-1.43,3.09-3.92,5.54-7.03,6.92
			l-38.09,16.87c-3.63,1.61-6.54,4.47-8.21,8.07l-27.53,59.34c-0.7,1.5-0.04,3.29,1.46,3.98c0.41,0.19,0.84,0.28,1.26,0.28
			c1.13,0,2.22-0.64,2.72-1.74l16.1-34.72l5.47,12.14c0.61,1.34,0.58,2.88-0.07,4.2l-21.15,43.23c-0.7,1.43-1.07,3.04-1.07,4.63
			v20.66c0,2.63,0.97,5.15,2.74,7.09l8.38,9.21c-0.56,0.86-1,1.8-1.3,2.8H267.5c-0.32-1.07-0.79-2.07-1.41-2.97l7.88-10.06
			c1.44-1.85,2.24-4.15,2.24-6.49v-21.08c0-1.5-0.33-3.02-0.96-4.39l-19.4-42.36c-0.62-1.35-0.6-2.88,0.05-4.22l4.98-10.26l15.06,32
			c0.41,0.86,1.2,1.48,2.13,1.67l19.3,3.83c0.02,0,0.04,0,0.05,0.01c0.17,0.03,0.35,0.05,0.53,0.05c0.01,0,0.02,0,0.03,0
			c0.17,0,0.35-0.02,0.51-0.05c0.05-0.01,0.1-0.02,0.15-0.03c0.17-0.04,0.34-0.09,0.5-0.16c0.01,0,0.02-0.01,0.03-0.01
			c0,0,0,0,0.01,0c0.16-0.07,0.31-0.17,0.46-0.27c0.04-0.03,0.09-0.06,0.13-0.1c0.1-0.08,0.2-0.17,0.3-0.26
			c0.03-0.03,0.07-0.07,0.1-0.1c0.11-0.13,0.22-0.26,0.31-0.41c0.02-0.03,0.03-0.06,0.05-0.09c0.05-0.09,0.11-0.18,0.15-0.28
			l53.42-119.09c0.42,0.05,0.85,0.09,1.29,0.09c5.86,0,10.62-4.77,10.62-10.62s-4.77-10.62-10.62-10.62s-10.62,4.77-10.62,10.62
			c0,3.27,1.49,6.2,3.82,8.15l-50.65,112.93l-50.76-112.71c2.5-1.95,4.11-4.97,4.11-8.38c0-5.86-4.77-10.62-10.62-10.62
			s-10.62,4.77-10.62,10.62s4.77,10.62,10.62,10.62c0.31,0,0.62-0.02,0.92-0.05l51.23,113.75l-12.1-2.4l-27.56-58.55
			c-1.7-3.61-4.65-6.47-8.31-8.05l-36.66-15.84c-3.23-1.39-5.79-3.93-7.22-7.14l-18.37-41.19c-0.67-1.51-2.45-2.19-3.96-1.52
			c-1.51,0.67-2.19,2.45-1.52,3.96l18.37,41.19c2.05,4.59,5.71,8.21,10.33,10.2l36.66,15.84c2.32,1,4.19,2.81,5.26,5.1l9.86,20.95
			l-7.1,14.61c-1.43,2.95-1.47,6.35-0.11,9.33l19.4,42.36c0.27,0.59,0.41,1.24,0.41,1.89v21.08c0,1.01-0.34,2-0.96,2.8l-7.79,9.95
			c-0.37-0.16-0.75-0.29-1.14-0.4v-24.7c0-3.15-0.67-6.21-1.98-9.07l-21.97-47.94c-0.74-1.61-0.68-3.5,0.17-5.06l6.21-11.46
			c1.46-2.69,1.53-5.94,0.19-8.7l-3.49-7.17c-1.11-2.29-3.01-4.09-5.35-5.08l-38.33-16.23c-2.74-1.16-4.93-3.28-6.18-5.98
			l-29.84-64.41c2.11-1.94,3.44-4.72,3.44-7.8c0-5.86-4.77-10.62-10.62-10.62s-10.62,4.77-10.62,10.62s4.77,10.62,10.62,10.62
			c0.62,0,1.22-0.06,1.81-0.17l29.77,64.27c1.88,4.05,5.18,7.25,9.29,8.99l38.33,16.23c1,0.42,1.82,1.2,2.3,2.18l3.49,7.17
			c0.5,1.02,0.47,2.22-0.07,3.21l-6.21,11.46c-1.74,3.21-1.87,7.1-0.35,10.42l21.97,47.94c0.95,2.08,1.43,4.29,1.43,6.57v21.49
			l-45.9-98.49c1.93-1.92,3.13-4.59,3.13-7.52c0-5.86-4.77-10.62-10.62-10.62s-10.62,4.76-10.62,10.62s4.77,10.62,10.62,10.62
			c0.76,0,1.5-0.08,2.21-0.23l47.12,101.11c-2.18,1.95-3.56,4.77-3.56,7.91c0,5.86,4.77,10.62,10.62,10.62
			c4.82,0,8.89-3.22,10.18-7.62h60.54c1.3,4.4,5.37,7.62,10.18,7.62c5.86,0,10.62-4.77,10.62-10.62c0-3.14-1.38-5.96-3.55-7.9
			l47.85-101.12c0.72,0.15,1.46,0.24,2.23,0.24c5.86,0,10.62-4.77,10.62-10.62s-4.77-10.62-10.62-10.62s-10.62,4.76-10.62,10.62
			c0,2.93,1.19,5.59,3.12,7.51l-46.65,98.58v-21.9c0-2.29,0.48-4.5,1.44-6.57l21.37-46.59c1.48-3.22,1.42-6.88-0.15-10.05l-5.96-12
			c-0.46-0.92-0.49-1.99-0.09-2.93l3.25-7.71c0.46-1.08,1.31-1.94,2.39-2.4l38.55-16.42c4.12-1.75,7.42-4.96,9.29-9.04l29.52-64.38
			c0.58,0.1,1.18,0.16,1.8,0.16c5.86,0,10.62-4.77,10.62-10.62S448.47,299.53,442.61,299.53z M355.4,330.64
			c2.55,0,4.62,2.07,4.62,4.62s-2.07,4.62-4.62,4.62s-4.62-2.07-4.62-4.62S352.85,330.64,355.4,330.64z M240.67,339.88
			c-2.55,0-4.62-2.07-4.62-4.62s2.07-4.62,4.62-4.62s4.62,2.07,4.62,4.62S243.22,339.88,240.67,339.88z M152.55,314.78
			c-2.55,0-4.62-2.07-4.62-4.62c0-2.55,2.07-4.62,4.62-4.62s4.62,2.07,4.62,4.62C157.17,312.7,155.1,314.78,152.55,314.78z
			 M200.92,419.15c-2.55,0-4.62-2.07-4.62-4.62s2.07-4.62,4.62-4.62s4.62,2.07,4.62,4.62S203.47,419.15,200.92,419.15z
			 M257.31,538.57c-2.55,0-4.62-2.07-4.62-4.62s2.07-4.62,4.62-4.62c2.55,0,4.62,2.07,4.62,4.62S259.86,538.57,257.31,538.57z
			 M395.37,409.91c2.55,0,4.62,2.07,4.62,4.62s-2.07,4.62-4.62,4.62s-4.62-2.07-4.62-4.62S392.82,409.91,395.37,409.91z
			 M342.84,533.94c0,2.55-2.07,4.62-4.62,4.62s-4.62-2.07-4.62-4.62s2.07-4.62,4.62-4.62S342.84,531.39,342.84,533.94z
			 M442.61,314.78c-2.55,0-4.62-2.07-4.62-4.62c0-2.55,2.07-4.62,4.62-4.62s4.62,2.07,4.62,4.62
			C447.24,312.7,445.16,314.78,442.61,314.78z M176.82,291.71l30.33,66.2c1.65,3.59,4.71,6.43,8.42,7.8l18.9,6.97
			c0.34,0.12,0.69,0.19,1.04,0.19c0.82,0,1.62-0.34,2.2-0.96c0.82-0.89,1.03-2.19,0.52-3.29l-21.16-45.93l10.79-35.12
			c1.21-3.93,0.95-8.15-0.71-11.91l-15.05-33.9c-1.62-3.65-4.45-6.73-7.95-8.66l-20.34-11.19c-1.45-0.8-3.28-0.27-4.07,1.18
			c-0.8,1.45-0.27,3.28,1.18,4.07l20.34,11.19c2.36,1.3,4.27,3.37,5.36,5.84l15.05,33.9c1.08,2.43,1.24,5.17,0.46,7.71L211,322.02
			c-0.22,0.71-0.17,1.47,0.14,2.14l18.61,40.39l-12.1-4.46c-2.22-0.82-4.06-2.52-5.04-4.67l-13.77-30.05l11.2-38.66
			c1.09-3.78,0.8-7.83-0.83-11.4l-9.24-20.26c-2.09-4.58-5.73-8.33-10.25-10.55l-16.61-8.17c-2.23-1.1-3.9-3-4.7-5.36l-4.64-13.68
			c2.04-1.37,3.58-3.42,4.29-5.83h31.15c6.49,0,12.4,3.82,15.07,9.73l26.88,59.64l-9.96,31.45c-0.5,1.58,0.37,3.27,1.95,3.77
			c0.3,0.1,0.61,0.14,0.91,0.14c1.27,0,2.45-0.82,2.86-2.1l10.31-32.54c0.22-0.7,0.18-1.47-0.12-2.14l-27.36-60.69
			c-3.63-8.06-11.69-13.27-20.54-13.27h-31.15c-1.3-4.4-5.37-7.62-10.18-7.62c-5.86,0-10.62,4.77-10.62,10.62
			s4.77,10.62,10.62,10.62c0.06,0,0.11-0.01,0.17-0.01l4.69,13.83c1.32,3.88,4.06,7.01,7.74,8.81l16.61,8.17
			c3.28,1.61,5.92,4.33,7.44,7.66l9.24,20.26c1.04,2.27,1.23,4.84,0.53,7.24l-2.72,9.38l-14.13-29.79
			c-0.29-0.61-0.78-1.11-1.39-1.41l-36.34-17.75c-1.57-0.77-2.82-2.08-3.5-3.69l-6.3-14.81c-1-2.36-2.79-4.35-5.03-5.61l-17.69-9.91
			h17.34c1.66,0,3-1.34,3-3s-1.34-3-3-3h-17.36c-1.3-4.4-5.37-7.62-10.18-7.62c-5.86,0-10.62,4.77-10.62,10.62
			s4.77,10.62,10.62,10.62c0.55,0,1.08-0.05,1.61-0.14l18.58,41.41c2.15,4.79,6.01,8.55,10.86,10.58l30.48,12.72
			C172.19,285.19,175.15,288.06,176.82,291.71z M157.85,213.07c-2.55,0-4.62-2.07-4.62-4.62s2.07-4.62,4.62-4.62
			s4.62,2.07,4.62,4.62S160.4,213.07,157.85,213.07z M106.96,213.07c-2.55,0-4.62-2.07-4.62-4.62s2.07-4.62,4.62-4.62
			s4.62,2.07,4.62,4.62S109.51,213.07,106.96,213.07z M132.62,257.89l-18.52-41.28l17.83,9.98c1.09,0.61,1.95,1.58,2.44,2.72
			l6.3,14.81c1.25,2.94,3.52,5.33,6.39,6.73l35.4,17.29l16.59,34.96l-4.03,13.9l-12.74-27.8c-2.3-5.03-6.38-8.97-11.48-11.1
			l-30.48-12.72C136.88,263.95,134.15,261.29,132.62,257.89z M488.44,197.83c-4.82,0-8.89,3.22-10.18,7.62H460.9c-1.66,0-3,1.34-3,3
			s1.34,3,3,3h17.34l-17.69,9.91c-2.24,1.25-4.03,3.25-5.03,5.61l-6.3,14.81c-0.68,1.61-1.93,2.92-3.5,3.69l-36.34,17.75
			c-0.61,0.3-1.1,0.79-1.39,1.41l-14.13,29.79l-2.72-9.38c-0.69-2.4-0.51-4.97,0.53-7.24l9.24-20.26c1.52-3.33,4.16-6.04,7.44-7.66
			l16.61-8.17c3.67-1.81,6.42-4.94,7.74-8.81l4.69-13.83c0.06,0,0.11,0.01,0.17,0.01c5.86,0,10.62-4.77,10.62-10.62
			s-4.77-10.62-10.62-10.62c-4.82,0-8.89,3.22-10.18,7.62h-31.15c-8.84,0-16.9,5.21-20.54,13.27l-27.36,60.69
			c-0.3,0.67-0.35,1.43-0.12,2.14l10.31,32.54c0.4,1.28,1.59,2.1,2.86,2.1c0.3,0,0.61-0.05,0.91-0.14c1.58-0.5,2.45-2.19,1.95-3.77
			l-9.96-31.45l26.88-59.64c2.67-5.91,8.58-9.73,15.07-9.73h31.15c0.71,2.41,2.25,4.46,4.29,5.83l-4.64,13.68
			c-0.8,2.36-2.47,4.26-4.7,5.36l-16.61,8.17c-4.52,2.22-8.16,5.97-10.25,10.55l-9.25,20.26c-1.63,3.58-1.93,7.63-0.83,11.4
			l11.2,38.66l-13.77,30.05c-0.98,2.15-2.82,3.85-5.04,4.67l-12.1,4.46l18.61-40.39c0.31-0.67,0.36-1.43,0.14-2.14l-11.12-36.21
			c-0.78-2.54-0.62-5.28,0.46-7.71l15.05-33.9c1.09-2.46,3-4.54,5.36-5.84l20.34-11.19c1.45-0.8,1.98-2.62,1.18-4.07
			c-0.8-1.45-2.62-1.98-4.07-1.18l-20.34,11.19c-3.5,1.93-6.33,5-7.95,8.66l-15.05,33.9c-1.67,3.75-1.92,7.98-0.71,11.91
			l10.79,35.12l-21.16,45.93c-0.51,1.1-0.3,2.4,0.52,3.29c0.58,0.63,1.38,0.96,2.2,0.96c0.35,0,0.7-0.06,1.04-0.19l18.9-6.97
			c3.71-1.37,6.78-4.21,8.42-7.8l30.33-66.2c1.67-3.65,4.63-6.51,8.34-8.06l30.48-12.72c4.85-2.02,8.7-5.78,10.86-10.57l18.58-41.41
			c0.53,0.08,1.06,0.14,1.61,0.14c5.86,0,10.62-4.77,10.62-10.62S494.3,197.83,488.44,197.83z M437.55,203.83
			c2.55,0,4.62,2.07,4.62,4.62s-2.07,4.62-4.62,4.62s-4.62-2.07-4.62-4.62S435,203.83,437.55,203.83z M462.78,257.89
			c-1.52,3.4-4.26,6.06-7.69,7.49l-30.48,12.72c-5.1,2.13-9.18,6.07-11.48,11.1l-12.74,27.8l-4.03-13.9l16.59-34.96l35.4-17.29
			c2.87-1.4,5.14-3.79,6.39-6.73l6.3-14.81c0.49-1.15,1.35-2.11,2.44-2.72l17.83-9.98L462.78,257.89z M488.44,213.07
			c-2.55,0-4.62-2.07-4.62-4.62s2.07-4.62,4.62-4.62s4.62,2.07,4.62,4.62S490.99,213.07,488.44,213.07z M298.05,481.12
			c-1.66,0-3,1.34-3,3v18.43c-4.4,1.3-7.62,5.37-7.62,10.18c0,5.86,4.77,10.62,10.62,10.62s10.62-4.77,10.62-10.62
			c0-4.82-3.22-8.89-7.62-10.18v-18.43C301.05,482.47,299.7,481.12,298.05,481.12z M302.67,512.74c0,2.55-2.07,4.62-4.62,4.62
			s-4.62-2.07-4.62-4.62c0-2.55,2.07-4.62,4.62-4.62S302.67,510.19,302.67,512.74z"/>
	</g>
	<g>
		<g>
			<g>
				<path class="st1" d="M44.4,591.55h11.37l20.68,40.62c0.56,1.09,2.11,1.1,2.69,0.02l21.4-40.64h11.15l-26.87,50.03
					c-0.49,0.89-1.43,1.44-2.45,1.44h-9.1c-1.04,0-1.99-0.57-2.48-1.49L44.4,591.55z"/>
			</g>
			<g>
				<path class="st1" d="M168.76,591.55h-37.96c-8.76,0-15.86,7.1-15.86,15.86v19.76c0,8.76,7.1,15.86,15.86,15.86h37.96v-9.24H133
					c-3.88,0-7.03-3.15-7.03-7.03v-5.96h42.8v-8.69h-42.8v-4.27c0-3.88,3.15-7.03,7.03-7.03h35.76V591.55z"/>
			</g>
			<g>
				<path class="st1" d="M178.8,591.55l10.3,0.01v34.85c0,3.88,3.15,7.03,7.03,7.03h33.72v9.59l-35.2,0
					c-8.76,0-15.86-7.1-15.86-15.86V591.55z"/>
			</g>
			<g>
				<g>
					<path class="st1" d="M282.57,591.55h-30.72c-8.76,0-15.86,7.1-15.86,15.86v19.76c0,8.76,7.1,15.86,15.86,15.86h30.72
						c8.76,0,15.86-7.1,15.86-15.86V607.4C298.42,598.65,291.32,591.55,282.57,591.55z M287.97,626.67c0,3.88-3.15,7.03-7.03,7.03
						h-27.46c-3.88,0-7.03-3.15-7.03-7.03V607.9c0-3.88,3.15-7.03,7.03-7.03h27.46c3.88,0,7.03,3.15,7.03,7.03V626.67z"/>
				</g>
			</g>
			<g>
				<path class="st1" d="M308.45,643.02v-45.56c0-3.27,2.65-5.91,5.91-5.91h10.67c1.56,0,3.02,0.75,3.93,2.03l28.08,39.43h1.34
					v-41.46h11.16v45.56c0,3.27-2.65,5.91-5.91,5.91h-9.4c-1.53,0-2.98-0.73-3.88-1.97l-29.18-39.69h-1.91v41.65H308.45z"/>
			</g>
			<g>
				<rect x="380.48" y="591.55" class="st1" width="10.59" height="51.48"/>
			</g>
			<g>
				<polygon class="st1" points="459.79,591.55 446.58,591.55 428.72,610.34 410.86,591.55 397.66,591.55 422.35,617.04 
					397.66,643.02 409.93,643.02 428.72,623.62 447.51,643.02 459.79,643.02 435.1,617.04 				"/>
			</g>
		</g>
	</g>
	<g>
		
			<radialGradient id="SVGID_00000178169764710192634470000009898659868948049032_" cx="545.4438" cy="590.5357" r="52.1246" gradientUnits="userSpaceOnUse">
			<stop  offset="0" style="stop-color:#497CEF"/>
			<stop  offset="0.4901" style="stop-color:#2EAAD5"/>
			<stop  offset="1" style="stop-color:#885EEF"/>
		</radialGradient>
		
			<rect x="540.41" y="591.55" style="fill:url(#SVGID_00000178169764710192634470000009898659868948049032_);" width="10.59" height="51.48"/>
		
			<radialGradient id="SVGID_00000127744903982263423780000011370958538307021192_" cx="497.1368" cy="590.5357" r="60.3838" gradientUnits="userSpaceOnUse">
			<stop  offset="0" style="stop-color:#497CEF"/>
			<stop  offset="0.4901" style="stop-color:#2EAAD5"/>
			<stop  offset="1" style="stop-color:#885EEF"/>
		</radialGradient>
		<path style="fill:url(#SVGID_00000127744903982263423780000011370958538307021192_);" d="M521.48,643.02h12.29l-26.98-49.01
			c-0.84-1.52-2.44-2.47-4.18-2.47h-8.7c-1.75,0-3.35,0.95-4.19,2.49l-26.76,48.99h12.66l5.61-11.15h34.41L521.48,643.02z
			 M485.18,624l11.17-22.22c0.71-1.42,2.73-1.43,3.46-0.03L511.5,624H485.18z"/>
	</g>
	<g>
		
			<linearGradient id="SVGID_00000096740338885777978430000010615252620824227515_" gradientUnits="userSpaceOnUse" x1="78.048" y1="643.5231" x2="78.048" y2="591.052">
			<stop  offset="0" style="stop-color:#B3E5F5"/>
			<stop  offset="0.5" style="stop-color:#FFFFFF"/>
			<stop  offset="1" style="stop-color:#B3E5F5"/>
		</linearGradient>
		<path style="fill:none;stroke:url(#SVGID_00000096740338885777978430000010615252620824227515_);stroke-miterlimit:10;" d="
			M44.4,591.55h11.37l20.68,40.62c0.56,1.09,2.11,1.1,2.69,0.02l21.4-40.64h11.15l-26.87,50.03c-0.49,0.89-1.43,1.44-2.45,1.44h-9.1
			c-1.04,0-1.99-0.57-2.48-1.49L44.4,591.55z"/>
		
			<linearGradient id="SVGID_00000092419268424386604800000017775702258705000379_" gradientUnits="userSpaceOnUse" x1="141.8562" y1="643.5231" x2="141.8562" y2="591.052">
			<stop  offset="0" style="stop-color:#B3E5F5"/>
			<stop  offset="0.5" style="stop-color:#FFFFFF"/>
			<stop  offset="1" style="stop-color:#B3E5F5"/>
		</linearGradient>
		<path style="fill:none;stroke:url(#SVGID_00000092419268424386604800000017775702258705000379_);stroke-miterlimit:10;" d="
			M168.76,591.55h-37.96c-8.76,0-15.86,7.1-15.86,15.86v19.76c0,8.76,7.1,15.86,15.86,15.86h37.96v-9.24H133
			c-3.88,0-7.03-3.15-7.03-7.03v-5.96h42.8v-8.69h-42.8v-4.27c0-3.88,3.15-7.03,7.03-7.03h35.76V591.55z"/>
		
			<linearGradient id="SVGID_00000182523182523271527130000008527294415323343279_" gradientUnits="userSpaceOnUse" x1="204.3231" y1="643.5231" x2="204.3231" y2="591.046">
			<stop  offset="0" style="stop-color:#B3E5F5"/>
			<stop  offset="0.5" style="stop-color:#FFFFFF"/>
			<stop  offset="1" style="stop-color:#B3E5F5"/>
		</linearGradient>
		<path style="fill:none;stroke:url(#SVGID_00000182523182523271527130000008527294415323343279_);stroke-miterlimit:10;" d="
			M178.8,591.55l10.3,0.01v34.85c0,3.88,3.15,7.03,7.03,7.03h33.72v9.59l-35.2,0c-8.76,0-15.86-7.1-15.86-15.86V591.55z"/>
		
			<linearGradient id="SVGID_00000009572200878618486610000001913841011423105458_" gradientUnits="userSpaceOnUse" x1="267.208" y1="643.5231" x2="267.208" y2="591.0463">
			<stop  offset="0" style="stop-color:#B3E5F5"/>
			<stop  offset="0.5" style="stop-color:#FFFFFF"/>
			<stop  offset="1" style="stop-color:#B3E5F5"/>
		</linearGradient>
		<path style="fill:none;stroke:url(#SVGID_00000009572200878618486610000001913841011423105458_);stroke-miterlimit:10;" d="
			M282.57,591.55h-30.72c-8.76,0-15.86,7.1-15.86,15.86v19.76c0,8.76,7.1,15.86,15.86,15.86h30.72c8.76,0,15.86-7.1,15.86-15.86
			V607.4C298.42,598.65,291.32,591.55,282.57,591.55z M287.97,626.67c0,3.88-3.15,7.03-7.03,7.03h-27.46
			c-3.88,0-7.03-3.15-7.03-7.03V607.9c0-3.88,3.15-7.03,7.03-7.03h27.46c3.88,0,7.03,3.15,7.03,7.03V626.67z"/>
		
			<linearGradient id="SVGID_00000126294056235954223890000011840143220062170526_" gradientUnits="userSpaceOnUse" x1="338.9939" y1="643.5231" x2="338.9939" y2="591.0463">
			<stop  offset="0" style="stop-color:#B3E5F5"/>
			<stop  offset="0.5" style="stop-color:#FFFFFF"/>
			<stop  offset="1" style="stop-color:#B3E5F5"/>
		</linearGradient>
		<path style="fill:none;stroke:url(#SVGID_00000126294056235954223890000011840143220062170526_);stroke-miterlimit:10;" d="
			M308.45,643.02v-45.56c0-3.27,2.65-5.91,5.91-5.91h10.67c1.56,0,3.02,0.75,3.93,2.03l28.08,39.43h1.34v-41.46h11.16v45.56
			c0,3.27-2.65,5.91-5.91,5.91h-9.4c-1.53,0-2.98-0.73-3.88-1.97l-29.18-39.69h-1.91v41.65H308.45z"/>
		
			<linearGradient id="SVGID_00000028323300578532830080000006048812812401243533_" gradientUnits="userSpaceOnUse" x1="385.7801" y1="643.5231" x2="385.7801" y2="591.0463">
			<stop  offset="0" style="stop-color:#B3E5F5"/>
			<stop  offset="0.5" style="stop-color:#FFFFFF"/>
			<stop  offset="1" style="stop-color:#B3E5F5"/>
		</linearGradient>
		
			<rect x="380.48" y="591.55" style="fill:none;stroke:url(#SVGID_00000028323300578532830080000006048812812401243533_);stroke-miterlimit:10;" width="10.59" height="51.48"/>
		
			<linearGradient id="SVGID_00000085213390504001965620000017075202786304897981_" gradientUnits="userSpaceOnUse" x1="428.7231" y1="643.5231" x2="428.7231" y2="591.0463">
			<stop  offset="0" style="stop-color:#B3E5F5"/>
			<stop  offset="0.5" style="stop-color:#FFFFFF"/>
			<stop  offset="1" style="stop-color:#B3E5F5"/>
		</linearGradient>
		
			<polygon style="fill:none;stroke:url(#SVGID_00000085213390504001965620000017075202786304897981_);stroke-miterlimit:10;" points="
			459.79,591.55 446.58,591.55 428.72,610.34 410.86,591.55 397.66,591.55 422.35,617.04 397.66,643.02 409.93,643.02 
			428.72,623.62 447.51,643.02 459.79,643.02 435.1,617.04 		"/>
	</g>
	<g>
		<circle class="st11" cx="106.96" cy="208.45" r="7.62"/>
		<circle class="st11" cx="157.85" cy="208.45" r="7.62"/>
		<circle class="st11" cx="257.9" cy="308.17" r="7.62"/>
		<circle class="st11" cx="338.22" cy="308.17" r="7.62"/>
		<circle class="st11" cx="442.61" cy="310.15" r="7.62"/>
		<circle class="st11" cx="240.67" cy="335.26" r="7.62"/>
		<circle class="st11" cx="355.4" cy="335.26" r="7.62"/>
		<circle class="st11" cx="200.92" cy="414.53" r="7.62"/>
		<circle class="st11" cx="395.37" cy="414.53" r="7.62"/>
		<circle class="st11" cx="298.05" cy="419.24" r="7.62"/>
		<circle class="st11" cx="298.05" cy="512.74" r="7.62"/>
		<circle class="st11" cx="257.31" cy="533.94" r="7.62"/>
		<circle class="st11" cx="338.22" cy="533.94" r="7.62"/>
		<circle class="st11" cx="152.55" cy="310.15" r="7.62"/>
		<line class="st11" x1="114.58" y1="208.45" x2="134.5" y2="208.45"/>
		<path class="st11" d="M165.48,208.45h33.71c7.68,0,14.64,4.5,17.8,11.5l27.36,60.69l-10.31,32.54"/>
		<path class="st11" d="M182.36,224.54l20.34,11.19c2.95,1.62,5.29,4.17,6.65,7.25l15.05,33.9c1.37,3.09,1.58,6.58,0.59,9.81
			l-11.12,36.21l21.64,46.97l-18.9-6.97c-2.98-1.1-5.41-3.34-6.73-6.24l-30.33-66.2c-1.98-4.33-5.52-7.75-9.91-9.58l-30.48-12.72
			c-4.13-1.72-7.44-4.95-9.27-9.03l-19.65-43.8"/>
		<path class="st11" d="M113.28,212.71l20.12,11.27c1.67,0.94,2.99,2.4,3.74,4.17l6.3,14.81c0.97,2.28,2.72,4.13,4.95,5.21
			l36.34,17.75l17.52,36.93"/>
		<path class="st11" d="M195.65,325.6l11.51-39.73c0.89-3.09,0.65-6.4-0.68-9.32l-9.24-20.26c-1.81-3.96-4.93-7.18-8.84-9.1
			l-16.61-8.17c-2.93-1.44-5.17-3.99-6.22-7.09l-5.38-15.85"/>
		<circle class="st11" cx="488.44" cy="208.45" r="7.62"/>
		<circle class="st11" cx="437.55" cy="208.45" r="7.62"/>
		<line class="st11" x1="480.82" y1="208.45" x2="460.9" y2="208.45"/>
		<path class="st11" d="M429.93,208.45h-33.71c-7.68,0-14.64,4.5-17.8,11.5l-27.36,60.69l10.31,32.54"/>
		<path class="st11" d="M413.05,224.54l-20.34,11.19c-2.95,1.62-5.29,4.17-6.65,7.25L371,276.88c-1.37,3.09-1.58,6.58-0.59,9.81
			l11.12,36.21l-21.64,46.97l18.9-6.97c2.98-1.1,5.41-3.34,6.73-6.24l30.33-66.2c1.98-4.33,5.52-7.75,9.91-9.58l30.48-12.72
			c4.13-1.72,7.44-4.95,9.27-9.03l19.65-43.8"/>
		<path class="st11" d="M482.12,212.71l-20.12,11.27c-1.67,0.94-2.99,2.4-3.74,4.17l-6.3,14.81c-0.97,2.28-2.72,4.13-4.95,5.21
			l-36.34,17.75l-17.52,36.93"/>
		<path class="st11" d="M399.75,325.6l-11.51-39.73c-0.89-3.09-0.65-6.4,0.68-9.32l9.24-20.26c1.81-3.96,4.93-7.18,8.84-9.1
			l16.61-8.17c2.93-1.44,5.17-3.99,6.22-7.09l5.38-15.85"/>
		<path class="st11" d="M155.97,316.96l30.88,66.67c1.56,3.37,4.32,6.04,7.74,7.48l38.33,16.23c1.67,0.71,3.03,2,3.83,3.63
			l3.49,7.17c0.92,1.89,0.87,4.11-0.13,5.96l-6.21,11.46c-1.3,2.4-1.39,5.26-0.26,7.74l21.97,47.94c1.12,2.45,1.71,5.12,1.71,7.82
			v27.27"/>
		<line class="st11" x1="254.04" y1="527.07" x2="204.69" y2="421.15"/>
		<path class="st11" d="M179.85,327.64l18.37,41.19c1.73,3.89,4.87,6.98,8.77,8.67l36.66,15.84c2.99,1.29,5.4,3.63,6.79,6.57
			l28.2,59.92l19.3,3.83l54.45-121.39"/>
		<line class="st11" x1="243.34" y1="342.39" x2="297.95" y2="463.66"/>
		<polyline class="st11" points="261.06,315.1 297.95,395.65 335.06,315.1 		"/>
		<line class="st11" x1="298.14" y1="411.62" x2="297.95" y2="395.65"/>
		<line class="st11" x1="298.05" y1="505.12" x2="298.05" y2="484.12"/>
		<path class="st11" d="M262.19,528.09l9.41-12.03c1.04-1.33,1.6-2.96,1.6-4.65v-21.08c0-1.08-0.23-2.15-0.68-3.14l-19.4-42.36
			c-0.99-2.16-0.96-4.64,0.08-6.78l7.72-15.9"/>
		<path class="st11" d="M338.22,526.32v-27.6c0-2.7,0.58-5.37,1.71-7.82l21.37-46.59c1.09-2.38,1.05-5.12-0.12-7.47l-5.96-12
			c-0.84-1.7-0.91-3.68-0.17-5.43l3.25-7.72c0.76-1.8,2.18-3.23,3.98-3.99l38.55-16.42c3.43-1.46,6.18-4.14,7.73-7.53l30.62-66.79"
			/>
		<line class="st11" x1="391.6" y1="421.15" x2="341.49" y2="527.07"/>
		<path class="st11" d="M333.34,528.09l-10.17-11.18c-1.26-1.39-1.96-3.2-1.96-5.07v-20.66c0-1.15,0.26-2.28,0.77-3.31l21.15-43.23
			c1.04-2.12,1.08-4.6,0.11-6.75l-8.17-18.13"/>
		<path class="st11" d="M316.2,460.42l27.53-59.34c1.36-2.94,3.75-5.28,6.71-6.59l38.09-16.87c3.77-1.67,6.81-4.66,8.54-8.4
			l19.7-42.63"/>
		<line class="st11" x1="264.94" y1="533.94" x2="330.6" y2="533.94"/>
	</g>
	<g>
		<g>
			
				<linearGradient id="SVGID_00000010297240928856156240000016865785019970548918_" gradientUnits="userSpaceOnUse" x1="539.9108" y1="617.2847" x2="551.504" y2="617.2847">
				<stop  offset="0" style="stop-color:#61B3DA"/>
				<stop  offset="0.5" style="stop-color:#61D2FF"/>
				<stop  offset="1" style="stop-color:#6FA2CC"/>
			</linearGradient>
			
				<rect x="540.41" y="591.55" style="fill:none;stroke:url(#SVGID_00000010297240928856156240000016865785019970548918_);stroke-miterlimit:10;" width="10.59" height="51.48"/>
			
				<linearGradient id="SVGID_00000004522472720182874470000002559577632587443088_" gradientUnits="userSpaceOnUse" x1="462.112" y1="617.2847" x2="534.623" y2="617.2847">
				<stop  offset="0" style="stop-color:#61B3DA"/>
				<stop  offset="0.5" style="stop-color:#61D2FF"/>
				<stop  offset="1" style="stop-color:#6FA2CC"/>
			</linearGradient>
			<path style="fill:none;stroke:url(#SVGID_00000004522472720182874470000002559577632587443088_);stroke-miterlimit:10;" d="
				M521.48,643.02h12.29l-26.98-49.01c-0.84-1.52-2.44-2.47-4.18-2.47h-8.7c-1.75,0-3.35,0.95-4.19,2.49l-26.76,48.99h12.66
				l5.61-11.15h34.41L521.48,643.02z M485.18,624l11.17-22.22c0.71-1.42,2.73-1.43,3.46-0.03L511.5,624H485.18z"/>
		</g>
	</g>
</g>
</svg>
