<?xml version="1.0" encoding="utf-8"?>
<svg version="1.1" xmlns="http://www.w3.org/2000/svg" xmlns:xlink="http://www.w3.org/1999/xlink" x="0px" y="0px"
	 viewBox="0 0 595.28 580" style="enable-background:new 0 0 595.28 580;" xml:space="preserve">
<style type="text/css">
	.st0{fill:url(#SVGID_1_);}
	.st11{fill:none;stroke:#FFFFFF;stroke-linecap:round;stroke-linejoin:round;stroke-miterlimit:10;}
</style>
<defs>
	<linearGradient id="SVGID_1_" gradientUnits="userSpaceOnUse" x1="403.1432" y1="384.1266" x2="103.0994" y2="255.9486">
		<stop  offset="0" style="stop-color:#885DEF"/>
		<stop  offset="0.5046" style="stop-color:#497BEF"/>
		<stop  offset="1" style="stop-color:#30AAD5"/>
	</linearGradient>
</defs>
<g>
	<g>
		<path class="st0" d="M257.9,318.79c0.51,0,1-0.05,1.49-0.12l35.57,77.65l0.15,12.73c-4.43,1.28-7.69,5.36-7.69,10.2
			c0,5.86,4.77,10.62,10.62,10.62s10.62-4.77,10.62-10.62c0-4.79-3.19-8.85-7.56-10.17l-0.16-12.79l35.76-77.62
			c0.49,0.07,0.99,0.12,1.5,0.12c5.86,0,10.62-4.77,10.62-10.62s-4.77-10.62-10.62-10.62s-10.62,4.77-10.62,10.62
			c0,3.2,1.43,6.06,3.67,8.01l-33.3,72.28l-33.11-72.28c2.24-1.95,3.67-4.82,3.67-8.01c0-5.86-4.77-10.62-10.62-10.62
			c-5.86,0-10.62,4.77-10.62,10.62S252.04,318.79,257.9,318.79z M338.22,303.54c2.55,0,4.62,2.07,4.62,4.62s-2.07,4.62-4.62,4.62
			s-4.62-2.07-4.62-4.62S335.67,303.54,338.22,303.54z M298.05,414.62c2.55,0,4.62,2.07,4.62,4.62s-2.07,4.62-4.62,4.62
			s-4.62-2.07-4.62-4.62S295.5,414.62,298.05,414.62z M257.9,303.54c2.55,0,4.62,2.07,4.62,4.62s-2.07,4.62-4.62,4.62
			c-2.55,0-4.62-2.07-4.62-4.62S255.35,303.54,257.9,303.54z M442.61,299.53c-5.86,0-10.62,4.77-10.62,10.62
			c0,3.09,1.33,5.86,3.44,7.81l-29.59,64.54c-1.24,2.71-3.44,4.85-6.18,6.02l-38.55,16.42c-2.52,1.08-4.5,3.06-5.57,5.59l-3.25,7.71
			c-1.08,2.56-0.99,5.45,0.25,7.93l5.96,12c0.76,1.54,0.79,3.32,0.08,4.88l-21.37,46.59c-1.31,2.87-1.98,5.92-1.98,9.08v25.04
			c-0.45,0.13-0.89,0.3-1.32,0.49l-8.52-9.36c-0.76-0.84-1.18-1.92-1.18-3.05v-20.66c0-0.69,0.16-1.38,0.46-1.99l21.15-43.23
			c1.44-2.93,1.49-6.33,0.15-9.3l-7.6-16.88l8.09-17.43c1.06-2.28,2.9-4.09,5.2-5.11l38.09-16.87c4.44-1.97,8.01-5.48,10.05-9.89
			l19.69-42.63c0.69-1.5,0.04-3.29-1.47-3.98c-1.51-0.69-3.29-0.04-3.98,1.47l-19.69,42.63c-1.43,3.09-3.92,5.54-7.03,6.92
			l-38.09,16.87c-3.63,1.61-6.54,4.47-8.21,8.07l-27.53,59.34c-0.7,1.5-0.04,3.29,1.46,3.98c0.41,0.19,0.84,0.28,1.26,0.28
			c1.13,0,2.22-0.64,2.72-1.74l16.1-34.72l5.47,12.14c0.61,1.34,0.58,2.88-0.07,4.2l-21.15,43.23c-0.7,1.43-1.07,3.04-1.07,4.63
			v20.66c0,2.63,0.97,5.15,2.74,7.09l8.38,9.21c-0.56,0.86-1,1.8-1.3,2.8H267.5c-0.32-1.07-0.79-2.07-1.41-2.97l7.88-10.06
			c1.44-1.85,2.24-4.15,2.24-6.49v-21.08c0-1.5-0.33-3.02-0.96-4.39l-19.4-42.36c-0.62-1.35-0.6-2.88,0.05-4.22l4.98-10.26l15.06,32
			c0.41,0.86,1.2,1.48,2.13,1.67l19.3,3.83c0.02,0,0.04,0,0.05,0.01c0.17,0.03,0.35,0.05,0.53,0.05c0.01,0,0.02,0,0.03,0
			c0.17,0,0.35-0.02,0.51-0.05c0.05-0.01,0.1-0.02,0.15-0.03c0.17-0.04,0.34-0.09,0.5-0.16c0.01,0,0.02-0.01,0.03-0.01
			c0,0,0,0,0.01,0c0.16-0.07,0.31-0.17,0.46-0.27c0.04-0.03,0.09-0.06,0.13-0.1c0.1-0.08,0.2-0.17,0.3-0.26
			c0.03-0.03,0.07-0.07,0.1-0.1c0.11-0.13,0.22-0.26,0.31-0.41c0.02-0.03,0.03-0.06,0.05-0.09c0.05-0.09,0.11-0.18,0.15-0.28
			l53.42-119.09c0.42,0.05,0.85,0.09,1.29,0.09c5.86,0,10.62-4.77,10.62-10.62s-4.77-10.62-10.62-10.62s-10.62,4.77-10.62,10.62
			c0,3.27,1.49,6.2,3.82,8.15l-50.65,112.93l-50.76-112.71c2.5-1.95,4.11-4.97,4.11-8.38c0-5.86-4.77-10.62-10.62-10.62
			s-10.62,4.77-10.62,10.62s4.77,10.62,10.62,10.62c0.31,0,0.62-0.02,0.92-0.05l51.23,113.75l-12.1-2.4l-27.56-58.55
			c-1.7-3.61-4.65-6.47-8.31-8.05l-36.66-15.84c-3.23-1.39-5.79-3.93-7.22-7.14l-18.37-41.19c-0.67-1.51-2.45-2.19-3.96-1.52
			c-1.51,0.67-2.19,2.45-1.52,3.96l18.37,41.19c2.05,4.59,5.71,8.21,10.33,10.2l36.66,15.84c2.32,1,4.19,2.81,5.26,5.1l9.86,20.95
			l-7.1,14.61c-1.43,2.95-1.47,6.35-0.11,9.33l19.4,42.36c0.27,0.59,0.41,1.24,0.41,1.89v21.08c0,1.01-0.34,2-0.96,2.8l-7.79,9.95
			c-0.37-0.16-0.75-0.29-1.14-0.4v-24.7c0-3.15-0.67-6.21-1.98-9.07l-21.97-47.94c-0.74-1.61-0.68-3.5,0.17-5.06l6.21-11.46
			c1.46-2.69,1.53-5.94,0.19-8.7l-3.49-7.17c-1.11-2.29-3.01-4.09-5.35-5.08l-38.33-16.23c-2.74-1.16-4.93-3.28-6.18-5.98
			l-29.84-64.41c2.11-1.94,3.44-4.72,3.44-7.8c0-5.86-4.77-10.62-10.62-10.62s-10.62,4.77-10.62,10.62s4.77,10.62,10.62,10.62
			c0.62,0,1.22-0.06,1.81-0.17l29.77,64.27c1.88,4.05,5.18,7.25,9.29,8.99l38.33,16.23c1,0.42,1.82,1.2,2.3,2.18l3.49,7.17
			c0.5,1.02,0.47,2.22-0.07,3.21l-6.21,11.46c-1.74,3.21-1.87,7.1-0.35,10.42l21.97,47.94c0.95,2.08,1.43,4.29,1.43,6.57v21.49
			l-45.9-98.49c1.93-1.92,3.13-4.59,3.13-7.52c0-5.86-4.77-10.62-10.62-10.62s-10.62,4.76-10.62,10.62s4.77,10.62,10.62,10.62
			c0.76,0,1.5-0.08,2.21-0.23l47.12,101.11c-2.18,1.95-3.56,4.77-3.56,7.91c0,5.86,4.77,10.62,10.62,10.62
			c4.82,0,8.89-3.22,10.18-7.62h60.54c1.3,4.4,5.37,7.62,10.18,7.62c5.86,0,10.62-4.77,10.62-10.62c0-3.14-1.38-5.96-3.55-7.9
			l47.85-101.12c0.72,0.15,1.46,0.24,2.23,0.24c5.86,0,10.62-4.77,10.62-10.62s-4.77-10.62-10.62-10.62s-10.62,4.76-10.62,10.62
			c0,2.93,1.19,5.59,3.12,7.51l-46.65,98.58v-21.9c0-2.29,0.48-4.5,1.44-6.57l21.37-46.59c1.48-3.22,1.42-6.88-0.15-10.05l-5.96-12
			c-0.46-0.92-0.49-1.99-0.09-2.93l3.25-7.71c0.46-1.08,1.31-1.94,2.39-2.4l38.55-16.42c4.12-1.75,7.42-4.96,9.29-9.04l29.52-64.38
			c0.58,0.1,1.18,0.16,1.8,0.16c5.86,0,10.62-4.77,10.62-10.62S448.47,299.53,442.61,299.53z"/>
	</g>
	<g>
		<circle class="st11" cx="106.96" cy="208.45" r="7.62"/>
		<circle class="st11" cx="157.85" cy="208.45" r="7.62"/>
		<circle class="st11" cx="257.9" cy="308.17" r="7.62"/>
		<circle class="st11" cx="338.22" cy="308.17" r="7.62"/>
		<circle class="st11" cx="442.61" cy="310.15" r="7.62"/>
		<circle class="st11" cx="240.67" cy="335.26" r="7.62"/>
		<circle class="st11" cx="355.4" cy="335.26" r="7.62"/>
		<circle class="st11" cx="200.92" cy="414.53" r="7.62"/>
		<circle class="st11" cx="395.37" cy="414.53" r="7.62"/>
		<circle class="st11" cx="298.05" cy="419.24" r="7.62"/>
		<circle class="st11" cx="152.55" cy="310.15" r="7.62"/>
		<line class="st11" x1="114.58" y1="208.45" x2="134.5" y2="208.45"/>
		<path class="st11" d="M165.48,208.45h33.71c7.68,0,14.64,4.5,17.8,11.5l27.36,60.69l-10.31,32.54"/>
		<path class="st11" d="M182.36,224.54l20.34,11.19c2.95,1.62,5.29,4.17,6.65,7.25l15.05,33.9c1.37,3.09,1.58,6.58,0.59,9.81
			l-11.12,36.21l21.64,46.97l-18.9-6.97c-2.98-1.1-5.41-3.34-6.73-6.24l-30.33-66.2c-1.98-4.33-5.52-7.75-9.91-9.58l-30.48-12.72
			c-4.13-1.72-7.44-4.95-9.27-9.03l-19.65-43.8"/>
		<path class="st11" d="M113.28,212.71l20.12,11.27c1.67,0.94,2.99,2.4,3.74,4.17l6.3,14.81c0.97,2.28,2.72,4.13,4.95,5.21
			l36.34,17.75l17.52,36.93"/>
		<path class="st11" d="M195.65,325.6l11.51-39.73c0.89-3.09,0.65-6.4-0.68-9.32l-9.24-20.26c-1.81-3.96-4.93-7.18-8.84-9.1
			l-16.61-8.17c-2.93-1.44-5.17-3.99-6.22-7.09l-5.38-15.85"/>
		<circle class="st11" cx="488.44" cy="208.45" r="7.62"/>
		<circle class="st11" cx="437.55" cy="208.45" r="7.62"/>
		<line class="st11" x1="480.82" y1="208.45" x2="460.9" y2="208.45"/>
		<path class="st11" d="M429.93,208.45h-33.71c-7.68,0-14.64,4.5-17.8,11.5l-27.36,60.69l10.31,32.54"/>
		<path class="st11" d="M413.05,224.54l-20.34,11.19c-2.95,1.62-5.29,4.17-6.65,7.25L371,276.88c-1.37,3.09-1.58,6.58-0.59,9.81
			l11.12,36.21l-21.64,46.97l18.9-6.97c2.98-1.1,5.41-3.34,6.73-6.24l30.33-66.2c1.98-4.33,5.52-7.75,9.91-9.58l30.48-12.72
			c4.13-1.72,7.44-4.95,9.27-9.03l19.65-43.8"/>
		<path class="st11" d="M482.12,212.71l-20.12,11.27c-1.67,0.94-2.99,2.4-3.74,4.17l-6.3,14.81c-0.97,2.28-2.72,4.13-4.95,5.21
			l-36.34,17.75l-17.52,36.93"/>
		<path class="st11" d="M399.75,325.6l-11.51-39.73c-0.89-3.09-0.65-6.4,0.68-9.32l9.24-20.26c1.81-3.96,4.93-7.18,8.84-9.1
			l16.61-8.17c2.93-1.44,5.17-3.99,6.22-7.09l5.38-15.85"/>
		<path class="st11" d="M155.97,316.96l30.88,66.67c1.56,3.37,4.32,6.04,7.74,7.48l38.33,16.23c1.67,0.71,3.03,2,3.83,3.63
			l3.49,7.17c0.92,1.89,0.87,4.11-0.13,5.96l-6.21,11.46c-1.3,2.4-1.39,5.26-0.26,7.74l21.97,47.94c1.12,2.45,1.71,5.12,1.71,7.82
			v27.27"/>
		<line class="st11" x1="254.04" y1="527.07" x2="204.69" y2="421.15"/>
		<path class="st11" d="M179.85,327.64l18.37,41.19c1.73,3.89,4.87,6.98,8.77,8.67l36.66,15.84c2.99,1.29,5.4,3.63,6.79,6.57
			l28.2,59.92l19.3,3.83l54.45-121.39"/>
		<line class="st11" x1="243.34" y1="342.39" x2="297.95" y2="463.66"/>
		<polyline class="st11" points="261.06,315.1 297.95,395.65 335.06,315.1 		"/>
		<line class="st11" x1="298.14" y1="411.62" x2="297.95" y2="395.65"/>
		<path class="st11" d="M262.19,528.09l9.41-12.03c1.04-1.33,1.6-2.96,1.6-4.65v-21.08c0-1.08-0.23-2.15-0.68-3.14l-19.4-42.36
			c-0.99-2.16-0.96-4.64,0.08-6.78l7.72-15.9"/>
		<path class="st11" d="M338.22,526.32v-27.6c0-2.7,0.58-5.37,1.71-7.82l21.37-46.59c1.09-2.38,1.05-5.12-0.12-7.47l-5.96-12
			c-0.84-1.7-0.91-3.68-0.17-5.43l3.25-7.72c0.76-1.8,2.18-3.23,3.98-3.99l38.55-16.42c3.43-1.46,6.18-4.14,7.73-7.53l30.62-66.79"
			/>
		<line class="st11" x1="391.6" y1="421.15" x2="341.49" y2="527.07"/>
		<path class="st11" d="M333.34,528.09l-10.17-11.18c-1.26-1.39-1.96-3.2-1.96-5.07v-20.66c0-1.15,0.26-2.28,0.77-3.31l21.15-43.23
			c1.04-2.12,1.08-4.6,0.11-6.75l-8.17-18.13"/>
		<path class="st11" d="M316.2,460.42l27.53-59.34c1.36-2.94,3.75-5.28,6.71-6.59l38.09-16.87c3.77-1.67,6.81-4.66,8.54-8.4
			l19.7-42.63"/>
	</g>
</g>
</svg>

